<?xml version="1.0" standalone="no"?>
<!DOCTYPE svg PUBLIC "-//W3C//DTD SVG 20010904//EN"
 "http://www.w3.org/TR/2001/REC-SVG-20010904/DTD/svg10.dtd">
<svg version="1.0" xmlns="http://www.w3.org/2000/svg"
 width="512.000000pt" height="512.000000pt" viewBox="0 0 512.000000 512.000000"
 preserveAspectRatio="xMidYMid meet">
<metadata>
Created by potrace 1.11, written by Peter Selinger 2001-2013
</metadata>
<g transform="translate(0.000000,512.000000) scale(0.100000,-0.100000)"
fill="#000000" stroke="none">
<path d="M1613 4970 c-221 -40 -349 -104 -488 -244 -79 -78 -98 -105 -143
-196 -67 -136 -85 -214 -85 -360 0 -156 19 -287 90 -610 41 -188 56 -418 34
-527 -22 -111 -88 -198 -181 -240 -45 -20 -78 -26 -183 -32 -70 -4 -132 -12
-137 -17 -7 -7 -9 -79 -8 -195 l3 -184 115 -6 c179 -9 268 -45 331 -132 55
-75 64 -124 63 -322 -1 -187 -6 -221 -74 -520 -25 -109 -46 -256 -55 -385 -26
-359 203 -704 541 -815 90 -30 276 -65 347 -65 l47 0 -2 192 -3 193 -100 11
c-113 13 -146 24 -227 71 -144 84 -166 176 -113 478 67 379 68 389 68 635 1
211 -1 244 -21 323 -43 171 -115 296 -259 447 l-86 91 85 87 c160 164 218 264
265 462 15 62 18 115 17 305 -2 240 -2 246 -69 630 -46 265 -35 358 52 435 75
65 162 101 283 114 l105 12 3 192 2 192 -57 -1 c-32 0 -104 -9 -160 -19z"/>
<path d="M3302 4798 l3 -193 40 -3 c215 -14 367 -92 416 -213 27 -66 23 -129
-26 -424 -123 -731 -70 -1029 234 -1330 39 -38 71 -72 71 -75 0 -3 -32 -38
-71 -79 -196 -206 -267 -355 -290 -614 -16 -179 0 -394 56 -722 24 -148 45
-294 45 -322 0 -126 -81 -222 -235 -280 -22 -9 -85 -21 -140 -27 l-100 -11 -3
-193 -2 -192 52 0 c60 0 237 31 317 55 221 67 403 226 501 438 67 144 83 295
55 527 -9 80 -19 148 -21 152 -2 3 -11 39 -19 80 -8 40 -24 116 -35 168 -49
228 -61 420 -36 542 17 80 35 116 83 169 66 73 138 99 302 108 l115 6 9 35
c11 42 6 335 -6 346 -5 5 -63 11 -130 14 -152 8 -212 27 -278 91 -56 55 -83
111 -100 204 -19 112 -2 323 44 535 48 218 59 277 72 385 19 151 19 253 1 347
-55 286 -268 524 -543 609 -84 26 -270 59 -334 59 l-49 0 2 -192z"/>
</g>
</svg>
